<svg xmlns="http://www.w3.org/2000/svg" viewBox="0 0 14 14"><defs><style>.cls-1{fill:#ee8004;}</style></defs><g id="Layer_2" data-name="Layer 2"><g id="Content"><g id="g7549"><path id="path7556" class="cls-1" d="M14,.7a.71.71,0,0,0-.7-.7H.7A.71.71,0,0,0,0,.7V13.3a.71.71,0,0,0,.7.7H13.26a.7.7,0,0,0,.7-.7V11.89h0L14,.7ZM1.41,1.41H12.56V12.59H1.41Z"/><path id="path7563" class="cls-1" d="M9.85,3.55H3.9a.48.48,0,0,0-.49.5v.28a.48.48,0,0,0,.49.49H9.85a.48.48,0,0,0,.49-.49V4.05A.48.48,0,0,0,9.85,3.55Z"/><path id="path7570" class="cls-1" d="M9.85,6.51H3.9A.48.48,0,0,0,3.41,7v.28a.48.48,0,0,0,.49.49H9.85a.48.48,0,0,0,.49-.49V7A.46.46,0,0,0,9.85,6.51Z"/><path id="path7577" class="cls-1" d="M9.85,9.43H3.9a.48.48,0,0,0-.49.49v.28a.48.48,0,0,0,.49.49H9.85a.48.48,0,0,0,.49-.49V9.92A.47.47,0,0,0,9.85,9.43Z"/></g></g></g></svg>