<svg xmlns="http://www.w3.org/2000/svg" id="Ebene_1" viewBox="-104.5 316.5 283.4 160.6"><style id="style3">.st0{fill:#148dea}</style><g id="Logo"><g id="g6"><path class="st0" d="M-104.5 316.5h41.2c23.6 0 51.6 17.7 51.6 53 0 32.4-28 53-51.6 53h-41.2v-106zm63.3 53c0-22.1-17.7-26.5-33.9-26.5v53c16.2 0 33.9-4.4 33.9-26.5z" id="path8"/><path class="st0" d="M-.1 316.5h29.5v39.8h.3L53 316.5h33.9L56 365.1l33.9 57.5H56l-26.2-45.7h-.3v45.7H0V316.5h-.1z" id="path10"/><path class="st0" d="M97.9 316.5h42.7c19.2 0 32.4 11.5 32.4 26.5 0 10-3.5 18.6-11.5 21.1v.3c6.6 2.5 17.4 11.5 17.4 25.8 0 21.2-16.2 32.4-33.9 32.4H97.9V316.5zm38.5 42.4c5 0 9.3-3.2 9.3-9.3 0-5.7-4.3-9.3-9.3-9.3h-9v18.6h9zm2.6 38.4c5.9 0 9.3-4.7 9.3-10.6 0-5.9-4.7-10.6-10.6-10.6h-10.3v21.2H139z" id="path12"/></g></g><g id="Claim_2"><g id="g15"><path class="st0" d="M-94.3 476.4h-10.2v-32.6h10c7.7 0 16.3 5.4 16.3 16.3 0 10.8-8.7 16.3-16.1 16.3zm-1.6-27h-2.5v21.3h2.5c5.4 0 11.3-3.4 11.3-10.7 0-7.2-5.9-10.6-11.3-10.6z" id="path17"/><path class="st0" d="M-60.7 476.4v-1.8h-.1c-1.5 1.8-3.8 2.5-6.5 2.5-4.5 0-8.6-3.9-8.6-10.2s4.1-10.2 8.6-10.2c2.7 0 5 .7 6.5 2.5h.1v-1.8h5.7v19h-5.7zm-4.8-14.5c-2.3 0-4.5 1.8-4.5 5s2.3 5 4.5 5c2.7 0 4.8-1.8 4.8-5s-2-5-4.8-5z" id="path19"/><path class="st0" d="M-44.4 477.1c-3.3 0-5.6-1.5-7.3-3.1l2.4-3.7c1.2 1.2 3.3 2.4 4.9 2.4 1.7 0 2.4-.6 2.4-1.6 0-3.3-8.9-2.1-8.9-9 0-3.7 3.2-5.4 6.8-5.4 3.3 0 5.3.6 7.3 2.2l-2.4 3.3c-1.2-.8-2.9-1.4-4.5-1.4-1 0-2 .2-2 1.4 0 2.4 9.3 2 9.3 9 .1 4.6-3.5 5.9-8 5.9z" id="path21"/><path class="st0" d="M-9.1 476.4l-6-8.2h-.1v8.2h-5.7v-33.1h5.7v20.9h.1l5.1-6.8h6.8l-7.3 9.1 8.2 10h-6.8v-.1z" id="path23"/><path class="st0" d="M13.2 476.4v-1.8h-.1c-1.5 1.8-3.8 2.5-6.5 2.5-4.5 0-8.6-3.9-8.6-10.2s4.1-10.2 8.6-10.2c2.7 0 5 .7 6.5 2.5h.1v-1.8h5.7v19h-5.7zm-4.8-14.5c-2.3 0-4.5 1.8-4.5 5s2.3 5 4.5 5c2.7 0 4.8-1.8 4.8-5s-2-5-4.8-5z" id="path25"/><path class="st0" d="M36.6 476.4V466c0-2.7-.9-4.1-3.6-4.1-2.3 0-3.9 1.8-3.9 4.1v10.4h-5.7v-19h5.7v1.8h.1c1.5-1.8 3.8-2.5 6.1-2.5 4.4 0 6.9 2.5 6.9 7.5v12.2h-5.6z" id="path27"/><path class="st0" d="M60 476.4V466c0-2.7-.9-4.1-3.6-4.1-2.3 0-3.9 1.8-3.9 4.1v10.4h-5.7v-19h5.7v1.8h.1c1.5-1.8 3.8-2.5 6.1-2.5 4.4 0 6.9 2.5 6.9 7.5v12.2H60z" id="path29"/><path class="st0" d="M93 476.4H82.1v-32.6h10c5.4 0 10 3.3 10 8.2 0 3.6-1.8 6.3-4.1 7.3 2.3.9 5.4 3.2 5.4 7.7.1 5.8-4.5 9.4-10.4 9.4zM91.7 449h-3.4v7.7h3.4c2.3 0 4.5-1.1 4.5-3.9 0-2.7-2.2-3.8-4.5-3.8zm.4 12.9h-3.9v9.1h3.9c3.2 0 5-1.8 5-4.5 0-2.8-1.8-4.6-5-4.6z" id="path31"/><path class="st0" d="M121.8 476.4v-1.8h-.1c-1.5 1.8-3.8 2.5-6.5 2.5-4.5 0-8.6-3.9-8.6-10.2s4.1-10.2 8.6-10.2c2.7 0 5 .7 6.5 2.5h.1v-1.8h5.7v19h-5.7zm-4.8-14.5c-2.3 0-4.5 1.8-4.5 5s2.3 5 4.5 5c2.7 0 4.8-1.8 4.8-5s-2.1-5-4.8-5z" id="path33"/><path class="st0" d="M145.2 476.4V466c0-2.7-.9-4.1-3.6-4.1-2.3 0-3.9 1.8-3.9 4.1v10.4H132v-19h5.7v1.8h.1c1.5-1.8 3.8-2.5 6.1-2.5 4.4 0 6.9 2.5 6.9 7.5v12.2h-5.6z" id="path35"/><path class="st0" d="M167.2 476.4l-6-8.2h-.2v8.2h-5.7v-33.1h5.7v20.9h.1l5.1-6.8h6.8l-7.3 9.1 8.2 10h-6.7v-.1z" id="path37"/></g></g></svg>