<svg role="img" tabindex="-1" xmlns="http://www.w3.org/2000/svg" viewBox="0 0 64 16"><g fill="none"><path d="M45.87 5.92c-.09-.17-.3 0-.51-.09 0 .09 0 .17.13.25a.68.68 0 01.38-.16zm.33-2.22c0-.08-.08-.17-.2-.25h-1.02c0 .17.13.25.25.25 0 .17.13.2.17.25.13.09.17.09.3 0 .12.09.17-.08.2 0 0 .25 0 .37-.03.57-.05.3-.3.26-.51.38 0 .13-.13.34 0 .47.13-.09.21-.13.42-.21 0-.13.13-.26.3-.34 0-.38.12-.74.12-1.12zm1.9 2.42v-.2h-.42l-.04.04.46.16zm-2.49-3.85c-.04-.4-.5-.45-.71-.61h-.17c-.33.12-.4.46-.45.73.12.38.36.13.53.38.17-.12.6-.42.8-.5zm.93.46c-.08-.08-.34.04-.46.09-.17.04-.3.16-.3.3h.46c.05-.14.22-.3.3-.39zm2.07.89s.09 0 0-.04l-.89-.13c-.08.13-.3.13-.3.25h-.08c.09.34.09.7.09 1.08.17.04.34.12.34.38.16.08.33.12.5.25.07-.04.1-.17.15-.3-.16-.2-.53-.08-.53-.46l-.25-.08c0-.25 0-.5-.04-.66l.04-.04c0 .04.04.08.13.17.16 0 .33.04.5-.1.07-.03.07-.24.15-.24.07 0 .15 0 .2-.08zm-.64-.5c0-.14-.04-.14-.08-.14-.21 0-.21-.33-.38-.25-.08 0-.17-.08-.3 0 0 .04 0 .04.09.04.21 0 .13.3.3.34h.37zm1.4-.26c.09-.21.09-.59-.08-.79-.09-.16-.3-.25-.5-.41l-.3.16c-.15.09-.23.25-.23.45.27.12.57.46.7.71h.12c.12-.12.2 0 .3-.12zm-8.64 11.63c-.04 0-.17-.12-.3-.12-.12.25 0 .42 0 .71 0 .13-.04.26-.04.26-.08 0-.23-.17-.26-.34v-.67l.35-.46c.25.16.33.41.25.62zm1.08-.46c0 .17-.04.34-.13.46-.04-.16-.16-.37-.36-.37-.17.33-.21.46-.04.96-.13.13-.21.17-.38.26-.09-.17-.09-.47-.09-.63 0-.3.05-.6.13-.84.13-.13.21-.34.34-.43h.44c-.2 0-.2.18-.2.3.12.04.29.09.29.29zm1.48.25c0 .34-.55.8-.55.8 0-.2.13-.46.13-.71 0 0-.18-.17-.34-.17-.13.08-.13.17-.17.3-.13.25-.38.5-.42.75-.04 0-.04-.04-.04-.04 0-.42.04-1.14.29-1.43.21-.25.38-.25.63-.29l.21.04-.16.25c.16.1.42.25.42.5zm1.15-.4l-.12.4-.27-.75c-.34-.3-.72-.34-.93-.51-.17-.04-.17.08-.25 0 0-.08 0-.21.12-.34h.25l.26.13c.12.13.42.13.42.38 0 .04-.04.08.08.25l.4.1.04.33zm.62-.6l-.3.25c-.07-.09 0-.3-.12-.43 0-.08.09-.12.05-.16-.05-.09-.52-.26-.52-.26-.17-.12-.38-.25-.55-.42-.16-.04-.3.04-.5.09v-.09c.08-.17.08-.38.34-.38.12 0 .29 0 .37.13.17 0 .26.17.38.21.19.2.35.3.48.38 0 .12.04.21.12.25.25 0 .17.25.25.42zm.22-1.31l-.05.63c-.08-.3-.3-.6-.54-.6-.13-.12-.25-.24-.3-.37-.1-.13-.22 0-.39-.13-.17 0-.38 0-.54.13v-.13l.29-.34c.3.05.65 0 .72.22.22.12.43.25.47.33v.13c.08.04.25.08.34.13zm-.22-2.13l-.16.61c-.21.17-.5.09-.73.09.3-.09.56-.45.73-.7.04-.05.08 0 .16 0zm-.59-.5a.9.9 0 01-.42.7c0-.25.12-.46.12-.67.11-.04.23-.12.3-.04zM44 8.7c-.2.2-.42.3-.5.55a.84.84 0 00-.08-.34c.04-.17.16-.26.2-.3l.38.09zm3.05 3.18c-.17.13-.3.13-.5.09l-.26-.34h.63l.13.25zm-.85-1.92c-.12.26-.25.5-.5.58-.13 0-.34.08-.6 0 .13-.09.26-.13.43-.24l.34-.34h.33zm3.85 4.4l-.13.13c-.12-.12-.04-.46-.25-.5-.21 0-.38-.2-.47-.25l.17-.08s.09-.04.17 0c.09.08.17.12.17.21.09.12.21 0 .3.12.04.13.08.3.04.38zm-3.09-4.06c-.04.24-.17.32-.38.61-.12.09-.38.13-.63.25.04-.12.17-.16.25-.3.09-.12.26-.32.3-.45.21-.11.3-.11.46-.11zm-2.02-1.48a1.43 1.43 0 01-.66-.52 1.37 1.37 0 01-.11-.5c.15 0 .27.12.3.2v.04c.22.26.43.45.47.78zm3.25 3.02h-.09c-.04 0-.33-.13-.42-.21-.04-.13-.04-.25-.04-.25h.33l.22.46zm3.32 1.94a3.4 3.4 0 00-.17.5c-.09-.25-.17-.62-.47-.62-.04-.17-.08-.22-.25-.34l-.32-.05c.04.17.28.17.12.39.16.12.29.12.37.33.08.13 0 .3.04.38l-.25.12c0-.2.04-.62-.24-.7-.25.08-.3-.26-.46-.35-.08 0-.08-.2-.21-.12-.21.12-.47 0-.68.12l.21-.34c.17-.12.34-.08.51-.12l.34-.04c.33 0 .62.16.95.3.17.08.25.2.25.38.09.04.26.04.26.16zm-6.02-5.6l-.13.52c-.13-.26-.25-.49-.3-.78l.43.25zm.8 1.2c-.25-.26-.47-.47-.47-.73.13 0 .26 0 .38.09 0 .21.09.38.09.63zm4.8 3.56c-.17-.13-.43-.13-.51-.34-.16-.04-.28-.04-.49-.04-.17.04-.38.04-.55.04-.04 0 0-.04-.08-.08-.26.08-.5.08-.76.33l.2-.5c.18 0 .3-.09.39-.09.17-.04.3-.04.42-.04v.04c.46 0 1-.04 1.34.34l.04.34zm-2.52-2.4a.83.83 0 01-.47.16c-.25-.2-.42-.44-.67-.78l.67.13c.12.08.36.36.47.49zm-1.4-1.84c0 .3-.04.67-.33.8l-.09-.42c.13-.09.25-.17.42-.38zM51 12.1c-.2 0-.38 0-.5-.22-.05 0-.12-.12-.16-.04-.2.17-.42-.13-.67-.08a.83.83 0 01-.47.25v-.04c0-.13.09-.26.26-.34.25.08.46-.47.71-.17.13.04.25.04.33.04.3.13.37.38.5.6zm.97 1.56h-.04c-.08-.13-.13-.22-.21-.22.13-.46-.13-.84-.21-1.22v-.13c.13.21.46.43.42.63.04.38.04.72.04.94zM48.1 9.37c-.21-.12-.59-.17-.5-.42.08-.21.2-.25.29-.33.04.29.08.5.21.75zm-4.3-5.42l-.22.25c.04.4-.12.7-.12 1.08l-.22-.67c.05-.17.09-.33.22-.53l.33-.13zm6.25 6.35h-.13c-.46.15-.84-.13-1.22-.38.2-.08.5-.13.76-.13l.12.26c.13.04.34.17.47.25zm-2.16-3.4c-.04.26-.12.64-.38.8 0-.16-.08-.24-.17-.37-.04 0 0 .13-.04.13 0 .08-.08.25-.08.42-.09.04-.26.12-.43.04v-.13c-.04-.08-.04-.25-.04-.33l-.04-.05c-.13.05-.13.13-.13.21-.04.09-.12.17-.12.3a.59.59 0 01-.38-.13v-.38c0-.08 0-.08-.04-.08l-.22.2c-.17-.12-.2-.46-.2-.67a2.44 2.44 0 012.02-.04c.08.04.17.04.25.09zm1.19 2.3c-.17.05-.47.13-.55-.08-.23-.38-.11-.72 0-.99.08.24.13.49.17.7.04.16.3.25.38.37zM43.7 3.36l-.3.09.05-.21c.08-.13.12-.26.25-.38v.5zm7.04 6.48c-.17 0-.45 0-.62-.13a1.44 1.44 0 01-.46-.34c.17-.12.38-.12.46-.17.17.17.32.47.62.64zm-1.17-1.19c-.2.05-.38-.16-.58-.25-.1-.23-.1-.48-.17-.6.17.12.54.12.46.5 0 .1.17.19.3.35zm3.45 2.98c0 .25-.16.46-.2.72 0-.26-.05-.47-.21-.64 0-.08.12-.08.04-.2 0 0-.24-.13-.24-.3 0-.17.16-.3.24-.42 0-.05.17.08.17.33 0 .04 0 .17-.05.26-.04.12.25.12.25.25zm.97.46c0 .21-.25.47-.34.63.1-.2.1-.63 0-.63-.08-.04-.25 0-.25-.08 0-.13.05-.3.05-.38 0-.17-.13-.25-.13-.34 0-.25.3-.3.38-.46.04.17.04.33.04.55 0 .08.13.33 0 .54 0 .13.25.05.25.17zm-3.42-3.92c-.24 0-.53.13-.66-.13.09-.04.17-.16.25-.25l.41.38zm1.18.95l-.2.08c-.47 0-.69-.12-.9-.3.17 0 .39-.2.39-.2.2.2.5.38.71.42zM50.05 6.5a3.99 3.99 0 00-1.67-.53c0 .12 0 .25-.04.29.49.24.95.45 1.37.82v.38a3.3 3.3 0 00-1.4-.96c-.05.08-.2.16-.25.33-.3-.2-.63-.42-.97-.46-.13 0-.21-.44-.21-.44a.7.7 0 00.42-.43h.17c.13 0 .13-.08.13-.2 0-.26-.55-.26-.8-.26-.3 0-.51 0-.68.13-.08 0-.04.12-.04.2 0 .05.12.13.12.13.09 0 .17-.08.26-.08-.05.25.04.38.3.5l-.05.41c-.5 0-.84.2-1.22.38-.13-.09-.21-.21-.3-.34-.5.17-1.36.84-1.36.84v-.3c.38-.33.86-.5 1.23-.7v-.28c-.16-.09-.33 0-.5 0-.35.04-.73.2-.98.4 0-.11-.04-.28-.04-.28a2.56 2.56 0 011.57-.38V5.5c-.05-.08-.05-.2-.13-.2-.25-.26-.5-.64-.5-.9l.16-.07c-.08-.24-.17-.87 0-1.08a1.32 1.32 0 01-.55-.5c-.09-.22-.17-.35-.21-.58.12-.25.2-.34.33-.59.07 0 .19-.04.23-.12.2-.05.33-.26.58-.13.17 0 .34.08.47.13 0 .08 0 .12.08.2.25 0 .25.26.38.47.13.04.25.04.34.04.25.08.46.08.55.2.33-.2.67-.24 1.05-.2.04-.13.13-.3.17-.5.04.12.04 0 .13 0 .15-.13.34-.34.64-.26.16.13.46.05.63.26.12.16.2.41.34.61-.13.25 0 .59-.26.71l-.25.26c-.09 0-.09.08-.21.08.12.3.04.72-.09 1 .09-.04.21-.04.21-.16.05.04 0 .12 0 .16v.12c0 .21-.12.42-.3.59-.07.25-.29.6-.56.63v.09c.61 0 1.12.17 1.7.46v.28zm3.24 4.05c0 .08-.13.16-.17.16 0 0-.21-.2-.25-.4-.04-.17.12-.46.12-.46.04 0 .09.08.13.08.04.04 0 .17.04.3.13.08.21.23.13.32zm3.38 2.9c0 .02-.08.1-.08.1-.19-.1-.3-.14-.56-.14 0-.17-.13-.38-.21-.38-.26 0-.22.17-.42.17l.37-.38c.05-.09.05-.09.13-.09.13.09.17.13.3.13 0 .09 0 .13-.05.25.13.09.21-.04.29.09.12.04.23.08.23.25zm-3.93-3.81c0 .12-.08.16-.16.25 0 0-.16-.21-.16-.3 0-.17 0-.25.04-.38.12.13.28.3.28.43zm1.64 1.24c0 .25-.04.55-.04.84-.12 0-.12-.08-.12-.25-.05-.25-.13-.46-.22-.72-.08-.33-.3-.6-.46-.99-.04-.17-.25-.25-.42-.38.2 0 .42 0 .59.17 0 .09.04.13.17.25.3 0 .2.38.46.55-.12.11-.17.2-.25.28.13.08.25.12.3.25zm-2.15-2.38c-.13.13-.47.16-.72-.05l.34-.14c.12.1.3.14.38.19zm-.93-.95c-.05.17-.21 0-.25 0h-.39c-.04-.09-.08-.13-.08-.21.17-.04.3-.13.42-.04.09.12.17.25.3.25zm3.67 3.29c0 .17-.08.3-.04.46-.08-.25-.25-.5-.34-.75 0-.05-.04-.05.05-.09.04 0 .2 0 .2.04.05.08.13.21.13.34zm2.12 1.73c0 .16-.04.2-.09.42-.29-.04-.29-.38-.33-.42-.2-.26-.48-.04-.68-.04-.09-.26.04-.26.04-.43.12 0 .25-.08.37 0 .2-.08.31.13.52.13.04.08.13.3.17.34zm.84 1.18c-.08.13-.08.13-.12.25 0-.2-.26-.33-.43-.67l.17-.3c.13.08.3.21.3.42 0 0-.04.1 0 .18 0 .04.08.04.08.12zM51 6.61c-.25 0-.38-.12-.5-.36 0-.13-.05-.3 0-.5.08.17.08.25.16.33.17-.08.17.13.21.17.05.11.13.24.13.36zm3.6 3.1c-.38-.21-.6-.59-.94-.97.34 0 .43.34.68.38.09.08.17.13.25.25v.34zm2.62 2.38c-.3 0-.13-.59-.74-.59-.12 0-.2.21-.37.26a5 5 0 01.04-.3c0-.08.04-.25.21-.34.31 0 .23.13.48.21.12.05.2.13.38.13v.63zm1 .55c0 .25 0 .34-.12.55l-.25-.38c.08-.13.08-.3.2-.5.05 0 .18.29.18.33zm-8.09-8.03l-.08.42-.34.09.21-.92c.09.16.21.32.21.4zm7.3 6.55c-.13-.04-.43-.08-.43-.2 0-.17-.08-.22-.29-.22-.15 0-.27.05-.52.13 0 0-.12-.17-.16-.33.08-.05.4-.13.56-.13.29 0 .58 0 .58.13 0 .16.26.2.26.62zm.38-.9c-.3 0-.6-.09-.64-.21-.08-.09 0-.26-.2-.26-.1 0-.22.13-.22.13-.08.04-.31-.13-.31 0 0 .21-.16.3-.37.3-.08 0-.17 0-.25-.05v-.42c.54 0 .5-.17.74-.17.15 0 .27.09.4.09.21 0 .09-.09.3-.09s.3.17.42.21c0 .13.13.3.13.47zm-.13-.93c-.34-.2-.84-.34-1.12-.34-.16 0-.66.21-.83.38L55.65 9c.25-.04.25-.25.42-.25.12 0 .3-.04.4-.04.12 0 .2-.08.24-.08.2 0 .12.2.25.2s.21-.08.3-.08c.21 0 .38.34.42.6zm-.97-.93c-.23 0-.27-.03-.43-.03-.21 0-.46.07-.59.28-.09-.16-.04-.25 0-.35.13-.13.34-.3.5-.3.29 0 .52.21.52.4zm.04-.6c-.27-.1-.43-.22-.68-.22-.08 0-.47.13-.5.21-.13-.17.08-.5.25-.59.17-.08.25-.04.33 0 0 .25.29.13.44.21.08.13.12.21.16.38zm1.01-4.82h-.46c-.08-.12-.21 0-.3 0-.08 0-.12 0-.29-.12.25 0 .38-.13.59-.21.17.12.34.17.46.33zm1.27.9a.45.45 0 00-.38-.26c-.12-.17-.3-.38-.46-.38.12 0 .3-.13.5-.13.09.21.26.34.3.5l.04.26zM48.02 14.44c-.05 0 .04.09-.38-.33-.09 0-.21.25-.21.33 0 .34.08.8.2 1.14h.34c0-.38.05-.8.05-1.14zm.89.04c0-.16-.13-.2-.3-.2-.08 0-.27.12-.27.2 0 .17-.08 1.1-.08 1.1h.27c.13-.38.38-.88.38-1.1zm5.52-.5l-.43.04c.17.09.17.3.17.34 0 .12-.08.25-.17.34-.08-.09-.08-.22-.17-.34-.08 0-.12.2-.12.3 0 .37.17.67.3.92h.37c-.04-.34-.13-.63-.13-1.01 0-.21.13-.46.17-.6zm9.06-3.82c0-1.83-.76-3.68-2.1-5.01-.6-.6-1.24-.88-1.74-1.46-.26-.25-.45-.5-.62-.84a2.07 2.07 0 00-.6-.47l.14.38h-.04c-.22 0-.43-.12-.6-.25l.17-.17c-.04-.08-.17-.08-.25-.08-.68-.11-1.3.25-1.95.38v.08c.42.13.5.63.73.89h.25c.08 0 .2.08.3.08 0-.08-.1-.25-.1-.25.1-.09.18-.09.26 0 .21.13.5-.09.72.25-.25 0-.5 0-.72.13 0 .04.13.12.09.2-.21-.08-.47 0-.55-.16l-.04.04c.25.3.63.53 1 .66.56.08 1.02-.17 1.55-.05 1.9.93 3.26 3.1 3.26 5.27 0 3.1-1.77 4.33-2.88 4.33-.2 0-.53-.13-.66-.25.13-.43.2-.93.2-1.7 0-1.79-.7-3.73-1.67-4.72-.47-.46-.97-.84-1.49-.84-.25 0-.5 0-.67.21-.21.17-.34.5-.3.72-.33.25-.88.38-1.3.38-.47 0-1.05-.17-1.58-.6V6.7c-.12-.05-.54-.3-.33-.5.13.05.21.12.26.16-.05-.28-.05-.61-.26-.87-.08 0-.2 0-.33-.08-.13-.13-.26-.3-.26-.5.13.2.34.12.47.25-.21-.51-.13-.72-.51-1.46-.09-.38-.47-.59-.72-.84-.12-.09-.17-.21-.32-.21-.17-.05-.17-.26-.17-.38.05 0 .17.08.25.12-.25-.57-.42-1.2-.96-1.54l-.13.09h-.68c.09-.09.26-.13.39-.21-.13-.13-.22-.17-.47-.17-.11.04-.27.17-.43.17h-.04c0-.13-.04-.3.2-.38a2.22 2.22 0 00-.75 0c-.04.21-.17.34-.17.5-.12.09-.17.22-.3.34 0-.25.13-.5.18-.76-.17.05-.38.17-.47.17a3.1 3.1 0 00-.93-.33c.26.16.13.46.17.67l-.17-.09c-.04-.16-.25-.29-.29-.5-.25 0-.42.08-.63.21V.6c.12 0 .3.13.38.25-.3 0-.51-.12-.8-.12 0 0 0-.04-.04-.04-.12.04-.23.16-.31.25-.3.25-.5.46-.63.84.08 0 .2 0 .25.04-.17.04-.25.25-.42.3v.61c-.13.13-.3.25-.38.5a7.53 7.53 0 00-.26 2.26c-.04.17-.12.21-.2.26v.65s.25-.24.38-.32v.53c-.18 0-.3.21-.3.34 0 .17.04.34.04.5 0 .09 0 .09.04.17 0-.08.09-.17.22-.2 0 0 .08-.1.25-.1-.13.13-.17.3-.25.47l-.13.13s-.05.08-.05.12c.18.87.43 1.63.77 2.45-.34.55-.72 1.6-.97 2.61-.22-.2-.51-.25-.77-.25-.23.04-.48.13-.65.38-.26-.13-.6-.08-.76.09-.34.3-.34.46-.34.71a.87.87 0 00-.26.59c0 .38.04.63.26.97h6.32c-.05-.12-.13-.3-.21-.38-.13-.25-.04-.59-.04-.84.12-.25.25-.5.42-.71.04-.13 0-.13.04-.17l.3-.05c.16 0 .29-.12.5-.12.13.17.13-.13.34-.22.46-.08.9 0 1.14.34 0 .05.05.05.05.1h-.22c-.23-.1-.5-.22-.8-.1 0 .1-.04.1-.04.22v.21c.16 0 .3.16.45.25.08-.13.31-.25.48-.25.2 0 .5.12.5.46v.46c.17.17.38.21.6.3-.09.16-.22.16-.34.16h-.34c-.04-.04-.13-.04-.13-.17-.12.17-.2.34-.3.51h4.9l-.22-.38c-.08-.25-.08-.59-.08-.84l.46-.63c.25 0 .47-.08.93-.12.08-.13 0-.18.38-.18.3 0 .5.05.59.1.04.08.04.08 0 .16-.09.08-.25-.08-.38-.04-.09.08.04.12.04.21.09.08-.38-.09-.38-.09l-.12.34.25.25c.08.12-.13.25-.13.38-.08-.04-.25-.17-.25-.13-.09.34 0 .63-.04.97h.46l.04-.72c.04-.42.55-1.17.85-1.17.16 0 .3.08.41.17.08.16.27.25.27.33 0 .08-.11.13-.3.13-.09 0-.09-.13-.22-.21l-.25.25s.3.25.3.42c0 .21-.05.3-.17.42l-.26-.5c-.12 0-.33.25-.33.37 0 .17-.09.26-.09.51h2.58c.3 0 .55-.08.85-.25h.5c1.04 0 1.85-.3 2.6-1.06a5.85 5.85 0 001.61-4.1zM47.3 15.6a2.76 2.76 0 01-.25-1.1c0-.2 0-.5.12-.7l-.46.08c-.13.16-.17.25-.17.33l.21-.08c.04 0 .09.08.13.16-.04.21-.3.21-.38.3-.13.42.25.67.3 1.01h.5z" fill="#FF6200"></path><path d="M35.31 11.61v3.04a10.63 10.63 0 01-4.85 1.26c-4.38 0-7.02-2.61-7.02-5.9 0-3.55 3.01-6.5 6.86-6.5.96 0 1.67.17 2.42.42.54.17.88.38 1.21.38.3 0 .38-.5.42-.8h.42l.37 4.1h-.5a4 4 0 00-1.08-1.95 4.3 4.3 0 00-3.14-1.22c-2.63 0-4.18 2.1-4.18 5.27 0 3.12 1.88 5.28 4.4 5.28.74 0 1.41-.17 2.25-.55v-3.12c0-1.02-.17-1.4-1.6-1.4v-.46h5.32v.46c-1.34 0-1.3.43-1.3 1.7M20.73 6.62v9.08h-.71l-8.99-9.37c.04.25.04.46.04.71v5.7c0 1.77 0 2.4 1.6 2.4v.47H8.43v-.46c1.59 0 1.59-.76 1.59-2.4v-6.5c0-.98 0-2.03-1.67-2.03v-.47h3.97l7.4 7.68c-.05-.2-.05-.33-.05-.63V6.63c0-1.69.04-2.4-1.54-2.4v-.47h4.22v.47c-1.55 0-1.63.67-1.63 2.4M.29 15.62v-.46c1 0 1.72-.09 1.72-1.57V5.8C2 4.27 1.46 4.23.29 4.23v-.47h5.94v.47C5 4.23 4.5 4.27 4.5 5.79v7.8c0 1.48.63 1.57 1.72 1.57v.46H.29" fill="#006"></path></g></svg>