<?xml version="1.0" encoding="utf-8"?>
<!-- Generator: Adobe Illustrator 24.3.0, SVG Export Plug-In . SVG Version: 6.00 Build 0)  -->
<svg version="1.1" id="Ebene_2" xmlns="http://www.w3.org/2000/svg" xmlns:xlink="http://www.w3.org/1999/xlink" x="0px" y="0px"
	 viewBox="0 0 227 32.4" style="enable-background:new 0 0 227 32.4;" xml:space="preserve">
<style type="text/css">
	.st0{fill:#002C57;}
	.st1{fill:#C20831;}
	.st2{fill:#7599BD;}
</style>
<g>
	<path class="st0" d="M7.8,12.9H1V9.2h18.2v3.7h-6.8v17.3H7.8V12.9z"/>
	<path class="st0" d="M24.4,9.2h4.7l8.9,21h-4.9l-1.9-5H22l-1.9,5h-4.7L24.4,9.2z M26.6,13.4l-3.1,8.1h6.3L26.6,13.4z"/>
	<path class="st0" d="M39.5,9.2h10.9c2.5,0,4.4,0.5,5.6,1.5c1.2,1,1.8,2.6,1.8,4.8c0,1.6-0.3,2.9-1.1,3.9c-0.7,1-1.8,1.7-3.1,2
		l5.2,8.8h-5L49.1,22h-5.2v8.2h-4.4L39.5,9.2L39.5,9.2z M49.3,13h-5.4v5.3h5.4c1.5,0,2.5-0.2,3.1-0.6c0.6-0.4,0.8-1.1,0.8-2
		c0-1-0.3-1.6-0.8-2C51.8,13.2,50.8,13,49.3,13z"/>
	<path class="st0" d="M69,21.5v-3.7h10.4v12.5H70c-1.7,0-3.1-0.1-4-0.4c-0.9-0.3-1.8-0.8-2.6-1.4c-1.1-0.8-1.9-2-2.4-3.3
		c-0.5-1.4-0.8-3-0.8-4.9c0-3.7,0.8-6.4,2.4-8.2c1.6-1.8,4.1-2.7,7.5-2.7h9.5v3.6H70c-1.7,0-3,0.6-3.8,1.7c-0.8,1.1-1.2,2.9-1.2,5.4
		c0,2.3,0.4,3.9,1.2,5c0.8,1.1,2,1.5,3.8,1.5h5v-4.9L69,21.5L69,21.5z"/>
	<path class="st0" d="M81.7,19.5c0-3.6,0.8-6.3,2.6-8.1c1.7-1.8,4.4-2.6,7.9-2.6c3.6,0,6.2,0.9,7.9,2.7c1.7,1.8,2.6,4.5,2.6,8.2
		c0,3.7-0.8,6.5-2.6,8.2c-1.7,1.8-4.3,2.7-7.9,2.7c-3.6,0-6.2-0.9-7.9-2.7C82.6,26.1,81.7,23.3,81.7,19.5z M92.2,12.4
		c-1.9,0-3.3,0.6-4.2,1.8c-0.9,1.2-1.4,3-1.4,5.4c0,2.6,0.4,4.5,1.3,5.7c0.9,1.2,2.3,1.8,4.3,1.8c1.9,0,3.3-0.6,4.3-1.8
		c0.9-1.2,1.4-3,1.4-5.5c0-2.5-0.5-4.3-1.4-5.5C95.6,13,94.2,12.4,92.2,12.4z"/>
</g>
<path class="st1" d="M153.6,30.2H142v-21h10.8c1.3,0,2.5,0.1,3.3,0.2c0.8,0.1,1.5,0.4,2.1,0.7c0.8,0.5,1.3,1.1,1.8,1.9
	c0.4,0.8,0.6,1.7,0.6,2.6c0,1.2-0.2,2.2-0.8,3c-0.5,0.8-1.3,1.5-2.4,2c1.1,0.5,1.9,1.1,2.4,1.9c0.5,0.8,0.8,1.7,0.8,2.9
	c0,2-0.6,3.4-1.7,4.4C157.7,29.7,156,30.2,153.6,30.2z M146.4,13v4.9h6.5c1,0,1.7-0.2,2.2-0.6c0.5-0.4,0.7-1,0.7-1.8
	c0-0.8-0.2-1.4-0.7-1.8c-0.5-0.4-1.2-0.6-2.2-0.6H146.4z M152.9,26.5c1,0,1.7-0.2,2.2-0.6c0.5-0.4,0.7-1,0.7-1.9
	c0-0.8-0.2-1.5-0.7-1.9c-0.5-0.4-1.2-0.6-2.2-0.6h-6.5v4.9L152.9,26.5L152.9,26.5z"/>
<path class="st1" d="M170.1,9.2h4.7l8.9,21h-4.9l-1.9-5h-9.1l-1.9,5h-4.7L170.1,9.2z M172.3,13.4l-3.1,8.1h6.3L172.3,13.4z"/>
<path class="st1" d="M185.2,9.2h5.6l8.6,15.1l-0.2-15.1h4.5v21h-5.1l-9-15.9l0.2,15.9h-4.5L185.2,9.2L185.2,9.2z"/>
<path class="st1" d="M207.9,9.2h4.4v10.1l8.3-10.1h5.3l-8.4,10.3l8.5,10.7h-5.6l-8-10.4v10.4h-4.4L207.9,9.2L207.9,9.2z"/>
<path class="st1" d="M116.8,4.3c-0.1-2.2,1.7-4.1,3.9-4.2c2.2-0.1,4.1,1.7,4.2,3.9c0.1,2.2-1.7,4.1-3.9,4.2
	C118.8,8.3,116.9,6.5,116.8,4.3z"/>
<path class="st2" d="M119,17.3c-1,1-2.5,1-3.4,0.1l-6.9-6.9c-0.9-0.9-0.9-2.4,0.1-3.4c1-1,2.5-1,3.4-0.1l6.9,6.9
	C120,14.9,119.9,16.3,119,17.3z"/>
<path class="st2" d="M122.8,17.3c1,1,2.5,1,3.4,0.1l6.9-6.9c0.9-0.9,0.9-2.4-0.1-3.4c-1-1-2.5-1-3.4-0.1l-6.9,6.9
	C121.7,14.9,121.8,16.3,122.8,17.3z"/>
<path class="st0" d="M108.6,31.5c1,1,2.5,1,3.4,0.1l7-7c0.9-0.9,0.9-2.4-0.1-3.4c-1-1-2.5-1-3.4-0.1l-7,7
	C107.6,29,107.6,30.5,108.6,31.5z"/>
<path class="st0" d="M133.1,31.5c-1,1-2.5,1-3.4,0.1l-7-7c-0.9-0.9-0.9-2.4,0.1-3.4s2.5-1,3.4-0.1l7,7
	C134.1,29,134.1,30.5,133.1,31.5z"/>
</svg>
